# xmcd CD database file
#
# Track frame offsets:
#	150
#	49400
#	70704
#	90169
#	113340
#	140413
#	172487
#	195577
#	221567
#	237141
#	295917
#	324858
#	340576
#
# Disc length: 4723 seconds
#
# Revision: 0
# Processed by: cddbd v1.5.2PL0 Copyright (c) Steve Scherf et al.
# Submitted via: CDex 1.51
#
DISCID=b512710d
DTITLE=B.B. King - King of the Blues
DYEAR=1900
DGENRE=Blues
TTITLE0=B.B. King Blues Theme
TTITLE1=Everyday I have the blues
TTITLE2=Why I sing the blues
TTITLE3=Darling you know I love you
TTITLE4=Sweet little Angel
TTITLE5=All over again
TTITLE6=The Thrill is gone
TTITLE7=Guess who?
TTITLE8=Caledonia
TTITLE9=King/ Brubeck Jam (long version)
TTITLE10=Payin' the cost to be the boss
TTITLE11=Outside Help
TTITLE12=Please Love me
EXTD=
EXTT0=
EXTT1=
EXTT2=
EXTT3=
EXTT4=
EXTT5=
EXTT6=
EXTT7=
EXTT8=
EXTT9=
EXTT10=
EXTT11=
EXTT12=
PLAYORDER=
